<svg width="88" height="24" viewBox="0 0 88 24" fill="none" xmlns="http://www.w3.org/2000/svg">
    <g fill="currentColor">
        <path d="M58.39.327h1.965c.372 0 .674.304.674.68v17.684c0 .376-.302.681-.674.681h-1.964a.677.677 0 0 1-.674-.68V1.007c0-.377.302-.681.674-.681zM86.142 17.532h-1.666c-.894 0-1.75-.358-2.382-.996l-1.841-1.861a3.422 3.422 0 0 1-.987-2.407v-1.66c0-.63-.505-1.14-1.128-1.14h-3.654a.677.677 0 0 0-.673.681v3.693c0 .629.505 1.14 1.127 1.14h1.692c.894 0 1.75.358 2.383.996l1.815 1.835c.632.638.986 1.504.986 2.407v1.686c0 .63.505 1.14 1.128 1.14h3.655a.677.677 0 0 0 .673-.681v-3.693c0-.63-.505-1.14-1.128-1.14z"></path>
        <path d="M75.109 0c-5.789 0-9.882 4.49-9.882 9.85v.054c0 5.36 4.04 9.795 9.828 9.795 1.237 0 2.39-.215 3.446-.594a.69.69 0 0 0 .25-1.13l-1.408-1.423a.665.665 0 0 0-.65-.17c-.5.134-1.025.215-1.584.215-3.742 0-6.409-3.048-6.409-6.747v-.055c0-3.7 2.612-6.693 6.355-6.693 3.743 0 6.408 3.047 6.408 6.748v.054c0 .943-.18 1.835-.497 2.646a.69.69 0 0 0 .14.743l1.518 1.534c.323.326.856.234 1.078-.17a9.943 9.943 0 0 0 1.234-4.807v-.055C84.936 4.435 80.898 0 75.11 0z"></path>
        <path fill-rule="evenodd" clip-rule="evenodd" d="M.674.327a.677.677 0 0 0-.674.68v17.684c0 .376.302.681.674.681h8.05c4.2 0 6.973-1.823 6.973-5.224v-.054c0-2.585-1.534-3.863-3.742-4.626 1.4-.734 2.693-1.959 2.693-4.244V5.17c0-1.251-.431-2.312-1.266-3.156C12.305.925 10.609.327 8.454.327H.674zm10.662 5.387c0-1.497-1.185-2.422-3.312-2.422H3.258v5.06h4.523c2.128 0 3.555-.843 3.555-2.584v-.054zm-2.828 5.469h-5.25v5.223h5.493c2.234 0 3.635-.897 3.635-2.612v-.054c0-1.605-1.266-2.557-3.878-2.557zM28.635.19h-2.188c-.268 0-.51.16-.617.409l-7.705 17.82a.68.68 0 0 0 .617.953h1.918c.27 0 .514-.163.62-.414l1.764-4.184h8.912l1.739 4.18c.105.254.35.418.621.418h2.023a.68.68 0 0 0 .617-.953L29.252.599a.673.673 0 0 0-.617-.408zm-1.148 4l3.258 7.618h-6.49l3.232-7.618z"></path>
        <path d="M39.472 16.071l1.128-1.355a.671.671 0 0 1 .94-.083c1.642 1.31 3.34 2.046 5.437 2.046 2.047 0 3.34-.98 3.34-2.394v-.055c0-1.36-.755-2.095-4.255-2.911-4.012-.98-6.274-2.177-6.274-5.687v-.054c0-3.265 2.693-5.523 6.435-5.523 2.498 0 4.528.697 6.313 1.99a.689.689 0 0 1 .145.947l-1.01 1.437a.671.671 0 0 1-.934.158c-1.513-1.025-3.03-1.567-4.567-1.567-1.939 0-3.07 1.007-3.07 2.259v.054c0 1.469.862 2.122 4.497 2.993 3.985.98 6.031 2.421 6.031 5.577v.055c0 3.564-2.773 5.686-6.731 5.686-2.663 0-5.188-.86-7.341-2.601a.692.692 0 0 1-.084-.972z"></path>
    </g>
</svg>